ply
format ascii 1.0
element vertex 1346
property float x
property float y
property float z
end_header
0.000000 0.000000 0.100000
0.000000 0.000000 0.200000
0.000000 0.000000 0.300000
0.000000 0.000000 0.400000
0.000000 0.000000 0.500000
0.000000 0.000000 0.600000
0.000000 0.000000 0.700000
0.000000 0.000000 0.800000
0.000000 0.000000 0.900000
0.000000 0.000000 1.000000
0.000000 0.000000 1.100000
0.000000 0.000000 1.200000
0.000000 0.000000 1.300000
0.000000 0.000000 1.400000
0.000000 0.000000 1.500000
0.000000 0.000000 1.600000
0.000000 0.000000 1.700000
0.000000 0.000000 1.800000
0.000000 0.000000 1.900000
0.000000 0.000000 2.000000
0.000000 0.000000 2.100000
0.000000 0.000000 2.200000
0.000000 0.000000 2.300000
0.000000 0.000000 2.400000
0.000000 0.000000 2.500000
0.000000 0.000000 2.600000
0.000000 0.000000 2.700000
0.000000 0.000000 2.800000
0.000000 0.000000 2.900000
0.000000 0.000000 3.000000
0.000000 0.000000 3.100000
0.000000 0.000000 3.200000
0.000000 0.000000 3.300000
0.000000 0.000000 3.400000
0.000000 0.000000 3.500000
0.000000 0.000000 3.600000
0.000000 0.000000 3.700000
0.000000 0.000000 3.800000
0.000000 0.000000 3.900000
0.000000 0.000000 4.000000
0.000000 0.000000 4.100000
0.000000 0.000000 4.200000
0.000000 0.000000 4.300000
0.000000 0.000000 4.400000
0.000000 0.000000 4.500000
0.000000 0.000000 4.600000
0.000000 0.000000 4.700000
0.000000 0.000000 4.800000
0.000000 0.000000 4.900000
0.000000 0.000000 5.000000
0.000000 0.000000 4.900000
0.000000 0.000000 4.800000
0.000000 0.000000 4.700000
0.000000 0.000000 4.600000
0.000000 0.000000 4.500000
0.000000 0.000000 4.400000
0.000000 0.000000 4.300000
0.000000 0.000000 4.200000
0.000000 0.000000 4.100000
0.000000 0.000000 4.000000
0.000000 0.000000 3.900000
0.000000 0.000000 3.800000
0.000000 0.000000 3.700000
0.000000 0.000000 3.600000
0.000000 0.000000 3.500000
0.000000 0.000000 3.400000
0.000000 0.000000 3.300000
0.000000 0.000000 3.200000
0.000000 0.000000 3.100000
0.000000 0.000000 3.000000
0.000000 0.000000 2.900000
0.000000 0.000000 2.800000
0.000000 0.000000 2.700000
0.000000 0.000000 2.600000
0.000000 0.000000 2.500000
0.000000 0.000000 2.400000
0.000000 0.000000 2.300000
0.000000 0.000000 2.200000
0.000000 0.000000 2.100000
0.000000 0.000000 2.000000
0.000000 0.000000 1.900000
0.000000 0.000000 1.800000
0.000000 0.000000 1.700000
0.000000 0.000000 1.600000
0.000000 0.000000 1.500000
0.000000 0.000000 1.400000
0.000000 0.000000 1.300000
0.000000 0.000000 1.200000
0.000000 0.000000 1.100000
0.000000 0.000000 1.000000
0.000000 0.000000 0.900000
0.000000 0.000000 0.800000
0.000000 0.000000 0.700000
0.000000 0.000000 0.600000
0.000000 0.000000 0.500000
0.000000 0.000000 0.400000
0.000000 0.000000 0.300000
0.000000 0.000000 0.200000
0.000000 0.000000 0.100000
0.000000 0.000000 0.000000
0.000000 0.000000 -0.100000
0.000000 0.000000 -0.200000
0.000000 0.000000 -0.300000
0.000000 0.000000 -0.400000
0.000000 0.000000 -0.500000
0.000000 0.000000 -0.600000
0.000000 0.000000 -0.700000
0.000000 0.000000 -0.800000
0.000000 0.000000 -0.900000
0.000000 0.000000 -1.000000
0.000000 0.000000 -1.100000
0.000000 0.000000 -1.200000
0.000000 0.000000 -1.300000
0.000000 0.000000 -1.400000
0.000000 0.000000 -1.500000
0.000000 0.000000 -1.600000
0.000000 0.000000 -1.700000
0.000000 0.000000 -1.800000
0.000000 0.000000 -1.900000
0.000000 0.000000 -2.000000
0.100000 0.000000 -2.000000
0.200000 0.000000 -2.000000
0.300000 0.000000 -2.000000
0.400000 0.000000 -2.000000
0.500000 0.000000 -2.000000
0.600000 0.000000 -2.000000
0.700000 0.000000 -2.000000
0.800000 0.000000 -2.000000
0.900000 0.000000 -2.000000
1.000000 0.000000 -2.000000
1.100000 0.000000 -2.000000
1.200000 0.000000 -2.000000
1.300000 0.000000 -2.000000
1.400000 0.000000 -2.000000
1.500000 0.000000 -2.000000
1.600000 0.000000 -2.000000
1.700000 0.000000 -2.000000
1.800000 0.000000 -2.000000
1.900000 0.000000 -2.000000
2.000000 0.000000 -2.000000
2.100000 0.000000 -2.000000
2.200000 0.000000 -2.000000
2.300000 0.000000 -2.000000
2.400000 0.000000 -2.000000
2.500000 0.000000 -2.000000
2.600000 0.000000 -2.000000
2.700000 0.000000 -2.000000
2.800000 0.000000 -2.000000
2.900000 0.000000 -2.000000
3.000000 0.000000 -2.000000
3.100000 0.000000 -2.000000
3.200000 0.000000 -2.000000
3.300000 0.000000 -2.000000
3.400000 0.000000 -2.000000
3.500000 0.000000 -2.000000
3.600000 0.000000 -2.000000
3.700000 0.000000 -2.000000
3.800000 0.000000 -2.000000
3.900000 0.000000 -2.000000
4.000000 0.000000 -2.000000
4.100000 0.000000 -2.000000
4.200000 0.000000 -2.000000
4.300000 0.000000 -2.000000
4.400000 0.000000 -2.000000
4.500000 0.000000 -2.000000
4.600000 0.000000 -2.000000
4.700000 0.000000 -2.000000
4.800000 0.000000 -2.000000
4.900000 0.000000 -2.000000
5.000000 0.000000 -2.000000
5.100000 0.000000 -2.000000
5.200000 0.000000 -2.000000
5.300000 0.000000 -2.000000
5.400000 0.000000 -2.000000
5.500000 0.000000 -2.000000
5.600000 0.000000 -2.000000
5.700000 0.000000 -2.000000
5.800000 0.000000 -2.000000
5.900000 0.000000 -2.000000
6.000000 0.000000 -2.000000
6.100000 0.000000 -2.000000
6.200000 0.000000 -2.000000
6.300000 0.000000 -2.000000
6.400000 0.000000 -2.000000
6.500000 0.000000 -2.000000
6.600000 0.000000 -2.000000
6.700000 0.000000 -2.000000
6.800000 0.000000 -2.000000
6.900000 0.000000 -2.000000
7.000000 0.000000 -2.000000
7.100000 0.000000 -2.000000
7.200000 0.000000 -2.000000
7.300000 0.000000 -2.000000
7.400000 0.000000 -2.000000
7.500000 0.000000 -2.000000
7.600000 0.000000 -2.000000
7.700000 0.000000 -2.000000
7.800000 0.000000 -2.000000
7.900000 0.000000 -2.000000
8.000000 0.000000 -2.000000
8.100000 0.000000 -2.000000
8.200000 0.000000 -2.000000
8.300000 0.000000 -2.000000
8.400000 0.000000 -2.000000
8.500000 0.000000 -2.000000
8.600000 0.000000 -2.000000
8.700000 0.000000 -2.000000
8.800000 0.000000 -2.000000
8.900000 0.000000 -2.000000
9.000000 0.000000 -2.000000
9.100000 0.000000 -2.000000
9.200000 0.000000 -2.000000
9.300000 0.000000 -2.000000
9.400000 0.000000 -2.000000
9.500000 0.000000 -2.000000
9.600000 0.000000 -2.000000
9.700000 0.000000 -2.000000
9.800000 0.000000 -2.000000
9.900000 0.000000 -2.000000
10.000000 0.000000 -2.000000
10.100000 0.000000 -2.000000
10.200000 0.000000 -2.000000
10.300000 0.000000 -2.000000
10.400000 0.000000 -2.000000
10.500000 0.000000 -2.000000
10.600000 0.000000 -2.000000
10.700000 0.000000 -2.000000
10.800000 0.000000 -2.000000
10.900000 0.000000 -2.000000
11.000000 0.000000 -2.000000
11.100000 0.000000 -2.000000
11.200000 0.000000 -2.000000
11.300000 0.000000 -2.000000
11.400000 0.000000 -2.000000
11.500000 0.000000 -2.000000
11.600000 0.000000 -2.000000
11.700000 0.000000 -2.000000
11.800000 0.000000 -2.000000
11.900000 0.000000 -2.000000
12.000000 0.000000 -2.000000
12.100000 0.000000 -2.000000
12.200000 0.000000 -2.000000
12.300000 0.000000 -2.000000
12.400000 0.000000 -2.000000
12.500000 0.000000 -2.000000
12.600000 0.000000 -2.000000
12.700000 0.000000 -2.000000
12.800000 0.000000 -2.000000
12.900000 0.000000 -2.000000
13.000000 0.000000 -2.000000
13.100000 0.000000 -2.000000
13.200000 0.000000 -2.000000
13.300000 0.000000 -2.000000
13.400000 0.000000 -2.000000
13.500000 0.000000 -2.000000
13.600000 0.000000 -2.000000
13.700000 0.000000 -2.000000
13.800000 0.000000 -2.000000
13.900000 0.000000 -2.000000
14.000000 0.000000 -2.000000
14.100000 0.000000 -2.000000
14.200000 0.000000 -2.000000
14.300000 0.000000 -2.000000
14.400000 0.000000 -2.000000
14.500000 0.000000 -2.000000
14.600000 0.000000 -2.000000
14.700000 0.000000 -2.000000
14.800000 0.000000 -2.000000
14.900000 0.000000 -2.000000
15.000000 0.000000 -2.000000
15.100000 0.000000 -2.000000
15.200000 0.000000 -2.000000
15.300000 0.000000 -2.000000
15.400000 0.000000 -2.000000
15.500000 0.000000 -2.000000
15.600000 0.000000 -2.000000
15.700000 0.000000 -2.000000
15.800000 0.000000 -2.000000
15.900000 0.000000 -2.000000
16.000000 0.000000 -2.000000
16.100000 0.000000 -2.000000
16.200000 0.000000 -2.000000
16.300000 0.000000 -2.000000
16.400000 0.000000 -2.000000
16.500000 0.000000 -2.000000
16.600000 0.000000 -2.000000
16.700000 0.000000 -2.000000
16.800000 0.000000 -2.000000
16.900000 0.000000 -2.000000
17.000000 0.000000 -2.000000
17.100000 0.000000 -2.000000
17.200000 0.000000 -2.000000
17.300000 0.000000 -2.000000
17.400000 0.000000 -2.000000
17.500000 0.000000 -2.000000
17.600000 0.000000 -2.000000
17.700000 0.000000 -2.000000
17.800000 0.000000 -2.000000
17.900000 0.000000 -2.000000
18.000000 0.000000 -2.000000
18.100000 0.000000 -2.000000
18.200000 0.000000 -2.000000
18.300000 0.000000 -2.000000
18.400000 0.000000 -2.000000
18.500000 0.000000 -2.000000
18.600000 0.000000 -2.000000
18.700000 0.000000 -2.000000
18.800000 0.000000 -2.000000
18.900000 0.000000 -2.000000
19.000000 0.000000 -2.000000
19.100000 0.000000 -2.000000
19.200000 0.000000 -2.000000
19.300000 0.000000 -2.000000
19.400000 0.000000 -2.000000
19.500000 0.000000 -2.000000
19.600000 0.000000 -2.000000
19.700000 0.000000 -2.000000
19.800000 0.000000 -2.000000
19.900000 0.000000 -2.000000
20.000000 0.000000 -2.000000
20.000000 0.100000 -2.000000
20.000000 0.200000 -2.000000
20.000000 0.300000 -2.000000
20.000000 0.400000 -2.000000
20.000000 0.500000 -2.000000
20.000000 0.600000 -2.000000
20.000000 0.700000 -2.000000
20.000000 0.800000 -2.000000
20.000000 0.900000 -2.000000
20.000000 1.000000 -2.000000
20.000000 1.100000 -2.000000
20.000000 1.200000 -2.000000
20.000000 1.300000 -2.000000
20.000000 1.400000 -2.000000
20.000000 1.500000 -2.000000
20.000000 1.600000 -2.000000
20.000000 1.700000 -2.000000
20.000000 1.800000 -2.000000
20.000000 1.900000 -2.000000
20.000000 2.000000 -2.000000
20.000000 2.100000 -2.000000
20.000000 2.200000 -2.000000
20.000000 2.300000 -2.000000
20.000000 2.400000 -2.000000
20.000000 2.500000 -2.000000
20.000000 2.600000 -2.000000
20.000000 2.700000 -2.000000
20.000000 2.800000 -2.000000
20.000000 2.900000 -2.000000
20.000000 3.000000 -2.000000
20.000000 3.100000 -2.000000
20.000000 3.200000 -2.000000
20.000000 3.300000 -2.000000
20.000000 3.400000 -2.000000
20.000000 3.500000 -2.000000
20.000000 3.600000 -2.000000
20.000000 3.700000 -2.000000
20.000000 3.800000 -2.000000
20.000000 3.900000 -2.000000
20.000000 4.000000 -2.000000
20.000000 4.100000 -2.000000
20.000000 4.200000 -2.000000
20.000000 4.300000 -2.000000
20.000000 4.400000 -2.000000
20.000000 4.500000 -2.000000
20.000000 4.600000 -2.000000
20.000000 4.700000 -2.000000
20.000000 4.800000 -2.000000
20.000000 4.900000 -2.000000
20.000000 5.000000 -2.000000
20.000000 5.100000 -2.000000
20.000000 5.200000 -2.000000
20.000000 5.300000 -2.000000
20.000000 5.400000 -2.000000
20.000000 5.500000 -2.000000
20.000000 5.600000 -2.000000
20.000000 5.700000 -2.000000
20.000000 5.800000 -2.000000
20.000000 5.900000 -2.000000
20.000000 6.000000 -2.000000
20.000000 6.100000 -2.000000
20.000000 6.200000 -2.000000
20.000000 6.300000 -2.000000
20.000000 6.400000 -2.000000
20.000000 6.500000 -2.000000
20.000000 6.600000 -2.000000
20.000000 6.700000 -2.000000
20.000000 6.800000 -2.000000
20.000000 6.900000 -2.000000
20.000000 7.000000 -2.000000
20.000000 7.100000 -2.000000
20.000000 7.200000 -2.000000
20.000000 7.300000 -2.000000
20.000000 7.400000 -2.000000
20.000000 7.500000 -2.000000
20.000000 7.600000 -2.000000
20.000000 7.700000 -2.000000
20.000000 7.800000 -2.000000
20.000000 7.900000 -2.000000
20.000000 8.000000 -2.000000
20.000000 8.100000 -2.000000
20.000000 8.200000 -2.000000
20.000000 8.300000 -2.000000
20.000000 8.400000 -2.000000
20.000000 8.500000 -2.000000
20.000000 8.600000 -2.000000
20.000000 8.700000 -2.000000
20.000000 8.800000 -2.000000
20.000000 8.900000 -2.000000
20.000000 9.000000 -2.000000
20.000000 9.100000 -2.000000
20.000000 9.200000 -2.000000
20.000000 9.300000 -2.000000
20.000000 9.400000 -2.000000
20.000000 9.500000 -2.000000
20.000000 9.600000 -2.000000
20.000000 9.700000 -2.000000
20.000000 9.800000 -2.000000
20.000000 9.900000 -2.000000
20.000000 10.000000 -2.000000
19.900000 10.000000 -2.000000
19.800000 10.000000 -2.000000
19.700000 10.000000 -2.000000
19.600000 10.000000 -2.000000
19.500000 10.000000 -2.000000
19.400000 10.000000 -2.000000
19.300000 10.000000 -2.000000
19.200000 10.000000 -2.000000
19.100000 10.000000 -2.000000
19.000000 10.000000 -2.000000
18.900000 10.000000 -2.000000
18.800000 10.000000 -2.000000
18.700000 10.000000 -2.000000
18.600000 10.000000 -2.000000
18.500000 10.000000 -2.000000
18.400000 10.000000 -2.000000
18.300000 10.000000 -2.000000
18.200000 10.000000 -2.000000
18.100000 10.000000 -2.000000
18.000000 10.000000 -2.000000
17.900000 10.000000 -2.000000
17.800000 10.000000 -2.000000
17.700000 10.000000 -2.000000
17.600000 10.000000 -2.000000
17.500000 10.000000 -2.000000
17.400000 10.000000 -2.000000
17.300000 10.000000 -2.000000
17.200000 10.000000 -2.000000
17.100000 10.000000 -2.000000
17.000000 10.000000 -2.000000
16.900000 10.000000 -2.000000
16.800000 10.000000 -2.000000
16.700000 10.000000 -2.000000
16.600000 10.000000 -2.000000
16.500000 10.000000 -2.000000
16.400000 10.000000 -2.000000
16.300000 10.000000 -2.000000
16.200000 10.000000 -2.000000
16.100000 10.000000 -2.000000
16.000000 10.000000 -2.000000
15.900000 10.000000 -2.000000
15.800000 10.000000 -2.000000
15.700000 10.000000 -2.000000
15.600000 10.000000 -2.000000
15.500000 10.000000 -2.000000
15.400000 10.000000 -2.000000
15.300000 10.000000 -2.000000
15.200000 10.000000 -2.000000
15.100000 10.000000 -2.000000
15.000000 10.000000 -2.000000
14.900000 10.000000 -2.000000
14.800000 10.000000 -2.000000
14.700000 10.000000 -2.000000
14.600000 10.000000 -2.000000
14.500000 10.000000 -2.000000
14.400000 10.000000 -2.000000
14.300000 10.000000 -2.000000
14.200000 10.000000 -2.000000
14.100000 10.000000 -2.000000
14.000000 10.000000 -2.000000
13.900000 10.000000 -2.000000
13.800000 10.000000 -2.000000
13.700000 10.000000 -2.000000
13.600000 10.000000 -2.000000
13.500000 10.000000 -2.000000
13.400000 10.000000 -2.000000
13.300000 10.000000 -2.000000
13.200000 10.000000 -2.000000
13.100000 10.000000 -2.000000
13.000000 10.000000 -2.000000
12.900000 10.000000 -2.000000
12.800000 10.000000 -2.000000
12.700000 10.000000 -2.000000
12.600000 10.000000 -2.000000
12.500000 10.000000 -2.000000
12.400000 10.000000 -2.000000
12.300000 10.000000 -2.000000
12.200000 10.000000 -2.000000
12.100000 10.000000 -2.000000
12.000000 10.000000 -2.000000
11.900000 10.000000 -2.000000
11.800000 10.000000 -2.000000
11.700000 10.000000 -2.000000
11.600000 10.000000 -2.000000
11.500000 10.000000 -2.000000
11.400000 10.000000 -2.000000
11.300000 10.000000 -2.000000
11.200000 10.000000 -2.000000
11.100000 10.000000 -2.000000
11.000000 10.000000 -2.000000
10.900000 10.000000 -2.000000
10.800000 10.000000 -2.000000
10.700000 10.000000 -2.000000
10.600000 10.000000 -2.000000
10.500000 10.000000 -2.000000
10.400000 10.000000 -2.000000
10.300000 10.000000 -2.000000
10.200000 10.000000 -2.000000
10.100000 10.000000 -2.000000
10.000000 10.000000 -2.000000
9.900000 10.000000 -2.000000
9.800000 10.000000 -2.000000
9.700000 10.000000 -2.000000
9.600000 10.000000 -2.000000
9.500000 10.000000 -2.000000
9.400000 10.000000 -2.000000
9.300000 10.000000 -2.000000
9.200000 10.000000 -2.000000
9.100000 10.000000 -2.000000
9.000000 10.000000 -2.000000
8.900000 10.000000 -2.000000
8.800000 10.000000 -2.000000
8.700000 10.000000 -2.000000
8.600000 10.000000 -2.000000
8.500000 10.000000 -2.000000
8.400000 10.000000 -2.000000
8.300000 10.000000 -2.000000
8.200000 10.000000 -2.000000
8.100000 10.000000 -2.000000
8.000000 10.000000 -2.000000
7.900000 10.000000 -2.000000
7.800000 10.000000 -2.000000
7.700000 10.000000 -2.000000
7.600000 10.000000 -2.000000
7.500000 10.000000 -2.000000
7.400000 10.000000 -2.000000
7.300000 10.000000 -2.000000
7.200000 10.000000 -2.000000
7.100000 10.000000 -2.000000
7.000000 10.000000 -2.000000
6.900000 10.000000 -2.000000
6.800000 10.000000 -2.000000
6.700000 10.000000 -2.000000
6.600000 10.000000 -2.000000
6.500000 10.000000 -2.000000
6.400000 10.000000 -2.000000
6.300000 10.000000 -2.000000
6.200000 10.000000 -2.000000
6.100000 10.000000 -2.000000
6.000000 10.000000 -2.000000
5.900000 10.000000 -2.000000
5.800000 10.000000 -2.000000
5.700000 10.000000 -2.000000
5.600000 10.000000 -2.000000
5.500000 10.000000 -2.000000
5.400000 10.000000 -2.000000
5.300000 10.000000 -2.000000
5.200000 10.000000 -2.000000
5.100000 10.000000 -2.000000
5.000000 10.000000 -2.000000
4.900000 10.000000 -2.000000
4.800000 10.000000 -2.000000
4.700000 10.000000 -2.000000
4.600000 10.000000 -2.000000
4.500000 10.000000 -2.000000
4.400000 10.000000 -2.000000
4.300000 10.000000 -2.000000
4.200000 10.000000 -2.000000
4.100000 10.000000 -2.000000
4.000000 10.000000 -2.000000
3.900000 10.000000 -2.000000
3.800000 10.000000 -2.000000
3.700000 10.000000 -2.000000
3.600000 10.000000 -2.000000
3.500000 10.000000 -2.000000
3.400000 10.000000 -2.000000
3.300000 10.000000 -2.000000
3.200000 10.000000 -2.000000
3.100000 10.000000 -2.000000
3.000000 10.000000 -2.000000
2.900000 10.000000 -2.000000
2.800000 10.000000 -2.000000
2.700000 10.000000 -2.000000
2.600000 10.000000 -2.000000
2.500000 10.000000 -2.000000
2.400000 10.000000 -2.000000
2.300000 10.000000 -2.000000
2.200000 10.000000 -2.000000
2.100000 10.000000 -2.000000
2.000000 10.000000 -2.000000
1.900000 10.000000 -2.000000
1.800000 10.000000 -2.000000
1.700000 10.000000 -2.000000
1.600000 10.000000 -2.000000
1.500000 10.000000 -2.000000
1.400000 10.000000 -2.000000
1.300000 10.000000 -2.000000
1.200000 10.000000 -2.000000
1.100000 10.000000 -2.000000
1.000000 10.000000 -2.000000
0.900000 10.000000 -2.000000
0.800000 10.000000 -2.000000
0.700000 10.000000 -2.000000
0.600000 10.000000 -2.000000
0.500000 10.000000 -2.000000
0.400000 10.000000 -2.000000
0.300000 10.000000 -2.000000
0.200000 10.000000 -2.000000
0.100000 10.000000 -2.000000
0.000000 10.000000 -2.000000
0.000000 9.900000 -2.000000
0.000000 9.800000 -2.000000
0.000000 9.700000 -2.000000
0.000000 9.600000 -2.000000
0.000000 9.500000 -2.000000
0.000000 9.400000 -2.000000
0.000000 9.300000 -2.000000
0.000000 9.200000 -2.000000
0.000000 9.100000 -2.000000
0.000000 9.000000 -2.000000
0.000000 8.900000 -2.000000
0.000000 8.800000 -2.000000
0.000000 8.700000 -2.000000
0.000000 8.600000 -2.000000
0.000000 8.500000 -2.000000
0.000000 8.400000 -2.000000
0.000000 8.300000 -2.000000
0.000000 8.200000 -2.000000
0.000000 8.100000 -2.000000
0.000000 8.000000 -2.000000
0.000000 7.900000 -2.000000
0.000000 7.800000 -2.000000
0.000000 7.700000 -2.000000
0.000000 7.600000 -2.000000
0.000000 7.500000 -2.000000
0.000000 7.400000 -2.000000
0.000000 7.300000 -2.000000
0.000000 7.200000 -2.000000
0.000000 7.100000 -2.000000
0.000000 7.000000 -2.000000
0.000000 6.900000 -2.000000
0.000000 6.800000 -2.000000
0.000000 6.700000 -2.000000
0.000000 6.600000 -2.000000
0.000000 6.500000 -2.000000
0.000000 6.400000 -2.000000
0.000000 6.300000 -2.000000
0.000000 6.200000 -2.000000
0.000000 6.100000 -2.000000
0.000000 6.000000 -2.000000
0.000000 5.900000 -2.000000
0.000000 5.800000 -2.000000
0.000000 5.700000 -2.000000
0.000000 5.600000 -2.000000
0.000000 5.500000 -2.000000
0.000000 5.400000 -2.000000
0.000000 5.300000 -2.000000
0.000000 5.200000 -2.000000
0.000000 5.100000 -2.000000
0.000000 5.000000 -2.000000
0.000000 4.900000 -2.000000
0.000000 4.800000 -2.000000
0.000000 4.700000 -2.000000
0.000000 4.600000 -2.000000
0.000000 4.500000 -2.000000
0.000000 4.400000 -2.000000
0.000000 4.300000 -2.000000
0.000000 4.200000 -2.000000
0.000000 4.100000 -2.000000
0.000000 4.000000 -2.000000
0.000000 3.900000 -2.000000
0.000000 3.800000 -2.000000
0.000000 3.700000 -2.000000
0.000000 3.600000 -2.000000
0.000000 3.500000 -2.000000
0.000000 3.400000 -2.000000
0.000000 3.300000 -2.000000
0.000000 3.200000 -2.000000
0.000000 3.100000 -2.000000
0.000000 3.000000 -2.000000
0.000000 2.900000 -2.000000
0.000000 2.800000 -2.000000
0.000000 2.700000 -2.000000
0.000000 2.600000 -2.000000
0.000000 2.500000 -2.000000
0.000000 2.400000 -2.000000
0.000000 2.300000 -2.000000
0.000000 2.200000 -2.000000
0.000000 2.100000 -2.000000
0.000000 2.000000 -2.000000
0.000000 1.900000 -2.000000
0.000000 1.800000 -2.000000
0.000000 1.700000 -2.000000
0.000000 1.600000 -2.000000
0.000000 1.500000 -2.000000
0.000000 1.400000 -2.000000
0.000000 1.300000 -2.000000
0.000000 1.200000 -2.000000
0.000000 1.100000 -2.000000
0.000000 1.000000 -2.000000
0.000000 0.900000 -2.000000
0.000000 0.800000 -2.000000
0.000000 0.700000 -2.000000
0.000000 0.600000 -2.000000
0.000000 0.500000 -2.000000
0.000000 0.400000 -2.000000
0.000000 0.300000 -2.000000
0.000000 0.200000 -2.000000
0.000000 0.100000 -2.000000
0.000000 0.000000 -2.000000
0.090909 0.045455 -2.000000
0.181818 0.090909 -2.000000
0.272727 0.136364 -2.000000
0.363636 0.181818 -2.000000
0.454545 0.227273 -2.000000
0.545455 0.272727 -2.000000
0.636364 0.318182 -2.000000
0.727273 0.363636 -2.000000
0.818182 0.409091 -2.000000
0.909091 0.454545 -2.000000
1.000000 0.500000 -2.000000
1.090909 0.545455 -2.000000
1.181818 0.590909 -2.000000
1.272727 0.636364 -2.000000
1.363636 0.681818 -2.000000
1.454545 0.727273 -2.000000
1.545455 0.772727 -2.000000
1.636364 0.818182 -2.000000
1.727273 0.863636 -2.000000
1.818182 0.909091 -2.000000
1.909091 0.954545 -2.000000
2.000000 1.000000 -2.000000
2.090909 1.045455 -2.000000
2.181818 1.090909 -2.000000
2.272727 1.136364 -2.000000
2.363636 1.181818 -2.000000
2.454545 1.227273 -2.000000
2.545455 1.272727 -2.000000
2.636364 1.318182 -2.000000
2.727273 1.363636 -2.000000
2.818182 1.409091 -2.000000
2.909091 1.454545 -2.000000
3.000000 1.500000 -2.000000
3.090909 1.545455 -2.000000
3.181818 1.590909 -2.000000
3.272727 1.636364 -2.000000
3.363636 1.681818 -2.000000
3.454545 1.727273 -2.000000
3.545455 1.772727 -2.000000
3.636364 1.818182 -2.000000
3.727273 1.863636 -2.000000
3.818182 1.909091 -2.000000
3.909091 1.954545 -2.000000
4.000000 2.000000 -2.000000
4.090909 2.045455 -2.000000
4.181818 2.090909 -2.000000
4.272727 2.136364 -2.000000
4.363636 2.181818 -2.000000
4.454545 2.227273 -2.000000
4.545455 2.272727 -2.000000
4.636364 2.318182 -2.000000
4.727273 2.363636 -2.000000
4.818182 2.409091 -2.000000
4.909091 2.454545 -2.000000
5.000000 2.500000 -2.000000
5.100000 2.500000 -2.000000
5.200000 2.500000 -2.000000
5.300000 2.500000 -2.000000
5.400000 2.500000 -2.000000
5.500000 2.500000 -2.000000
5.600000 2.500000 -2.000000
5.700000 2.500000 -2.000000
5.800000 2.500000 -2.000000
5.900000 2.500000 -2.000000
6.000000 2.500000 -2.000000
6.100000 2.500000 -2.000000
6.200000 2.500000 -2.000000
6.300000 2.500000 -2.000000
6.400000 2.500000 -2.000000
6.500000 2.500000 -2.000000
6.600000 2.500000 -2.000000
6.700000 2.500000 -2.000000
6.800000 2.500000 -2.000000
6.900000 2.500000 -2.000000
7.000000 2.500000 -2.000000
7.100000 2.500000 -2.000000
7.200000 2.500000 -2.000000
7.300000 2.500000 -2.000000
7.400000 2.500000 -2.000000
7.500000 2.500000 -2.000000
7.600000 2.500000 -2.000000
7.700000 2.500000 -2.000000
7.800000 2.500000 -2.000000
7.900000 2.500000 -2.000000
8.000000 2.500000 -2.000000
8.100000 2.500000 -2.000000
8.200000 2.500000 -2.000000
8.300000 2.500000 -2.000000
8.400000 2.500000 -2.000000
8.500000 2.500000 -2.000000
8.600000 2.500000 -2.000000
8.700000 2.500000 -2.000000
8.800000 2.500000 -2.000000
8.900000 2.500000 -2.000000
9.000000 2.500000 -2.000000
9.100000 2.500000 -2.000000
9.200000 2.500000 -2.000000
9.300000 2.500000 -2.000000
9.400000 2.500000 -2.000000
9.500000 2.500000 -2.000000
9.600000 2.500000 -2.000000
9.700000 2.500000 -2.000000
9.800000 2.500000 -2.000000
9.900000 2.500000 -2.000000
10.000000 2.500000 -2.000000
10.100000 2.500000 -2.000000
10.200000 2.500000 -2.000000
10.300000 2.500000 -2.000000
10.400000 2.500000 -2.000000
10.500000 2.500000 -2.000000
10.600000 2.500000 -2.000000
10.700000 2.500000 -2.000000
10.800000 2.500000 -2.000000
10.900000 2.500000 -2.000000
11.000000 2.500000 -2.000000
11.100000 2.500000 -2.000000
11.200000 2.500000 -2.000000
11.300000 2.500000 -2.000000
11.400000 2.500000 -2.000000
11.500000 2.500000 -2.000000
11.600000 2.500000 -2.000000
11.700000 2.500000 -2.000000
11.800000 2.500000 -2.000000
11.900000 2.500000 -2.000000
12.000000 2.500000 -2.000000
12.100000 2.500000 -2.000000
12.200000 2.500000 -2.000000
12.300000 2.500000 -2.000000
12.400000 2.500000 -2.000000
12.500000 2.500000 -2.000000
12.600000 2.500000 -2.000000
12.700000 2.500000 -2.000000
12.800000 2.500000 -2.000000
12.900000 2.500000 -2.000000
13.000000 2.500000 -2.000000
13.100000 2.500000 -2.000000
13.200000 2.500000 -2.000000
13.300000 2.500000 -2.000000
13.400000 2.500000 -2.000000
13.500000 2.500000 -2.000000
13.600000 2.500000 -2.000000
13.700000 2.500000 -2.000000
13.800000 2.500000 -2.000000
13.900000 2.500000 -2.000000
14.000000 2.500000 -2.000000
14.100000 2.500000 -2.000000
14.200000 2.500000 -2.000000
14.300000 2.500000 -2.000000
14.400000 2.500000 -2.000000
14.500000 2.500000 -2.000000
14.600000 2.500000 -2.000000
14.700000 2.500000 -2.000000
14.800000 2.500000 -2.000000
14.900000 2.500000 -2.000000
15.000000 2.500000 -2.000000
15.000000 2.600000 -2.000000
15.000000 2.700000 -2.000000
15.000000 2.800000 -2.000000
15.000000 2.900000 -2.000000
15.000000 3.000000 -2.000000
15.000000 3.100000 -2.000000
15.000000 3.200000 -2.000000
15.000000 3.300000 -2.000000
15.000000 3.400000 -2.000000
15.000000 3.500000 -2.000000
15.000000 3.600000 -2.000000
15.000000 3.700000 -2.000000
15.000000 3.800000 -2.000000
15.000000 3.900000 -2.000000
15.000000 4.000000 -2.000000
15.000000 4.100000 -2.000000
15.000000 4.200000 -2.000000
15.000000 4.300000 -2.000000
15.000000 4.400000 -2.000000
15.000000 4.500000 -2.000000
15.000000 4.600000 -2.000000
15.000000 4.700000 -2.000000
15.000000 4.800000 -2.000000
15.000000 4.900000 -2.000000
15.000000 5.000000 -2.000000
15.000000 5.100000 -2.000000
15.000000 5.200000 -2.000000
15.000000 5.300000 -2.000000
15.000000 5.400000 -2.000000
15.000000 5.500000 -2.000000
15.000000 5.600000 -2.000000
15.000000 5.700000 -2.000000
15.000000 5.800000 -2.000000
15.000000 5.900000 -2.000000
15.000000 6.000000 -2.000000
15.000000 6.100000 -2.000000
15.000000 6.200000 -2.000000
15.000000 6.300000 -2.000000
15.000000 6.400000 -2.000000
15.000000 6.500000 -2.000000
15.000000 6.600000 -2.000000
15.000000 6.700000 -2.000000
15.000000 6.800000 -2.000000
15.000000 6.900000 -2.000000
15.000000 7.000000 -2.000000
15.000000 7.100000 -2.000000
15.000000 7.200000 -2.000000
15.000000 7.300000 -2.000000
15.000000 7.400000 -2.000000
15.000000 7.500000 -2.000000
14.900000 7.500000 -2.000000
14.800000 7.500000 -2.000000
14.700000 7.500000 -2.000000
14.600000 7.500000 -2.000000
14.500000 7.500000 -2.000000
14.400000 7.500000 -2.000000
14.300000 7.500000 -2.000000
14.200000 7.500000 -2.000000
14.100000 7.500000 -2.000000
14.000000 7.500000 -2.000000
13.900000 7.500000 -2.000000
13.800000 7.500000 -2.000000
13.700000 7.500000 -2.000000
13.600000 7.500000 -2.000000
13.500000 7.500000 -2.000000
13.400000 7.500000 -2.000000
13.300000 7.500000 -2.000000
13.200000 7.500000 -2.000000
13.100000 7.500000 -2.000000
13.000000 7.500000 -2.000000
12.900000 7.500000 -2.000000
12.800000 7.500000 -2.000000
12.700000 7.500000 -2.000000
12.600000 7.500000 -2.000000
12.500000 7.500000 -2.000000
12.400000 7.500000 -2.000000
12.300000 7.500000 -2.000000
12.200000 7.500000 -2.000000
12.100000 7.500000 -2.000000
12.000000 7.500000 -2.000000
11.900000 7.500000 -2.000000
11.800000 7.500000 -2.000000
11.700000 7.500000 -2.000000
11.600000 7.500000 -2.000000
11.500000 7.500000 -2.000000
11.400000 7.500000 -2.000000
11.300000 7.500000 -2.000000
11.200000 7.500000 -2.000000
11.100000 7.500000 -2.000000
11.000000 7.500000 -2.000000
10.900000 7.500000 -2.000000
10.800000 7.500000 -2.000000
10.700000 7.500000 -2.000000
10.600000 7.500000 -2.000000
10.500000 7.500000 -2.000000
10.400000 7.500000 -2.000000
10.300000 7.500000 -2.000000
10.200000 7.500000 -2.000000
10.100000 7.500000 -2.000000
10.000000 7.500000 -2.000000
9.900000 7.500000 -2.000000
9.800000 7.500000 -2.000000
9.700000 7.500000 -2.000000
9.600000 7.500000 -2.000000
9.500000 7.500000 -2.000000
9.400000 7.500000 -2.000000
9.300000 7.500000 -2.000000
9.200000 7.500000 -2.000000
9.100000 7.500000 -2.000000
9.000000 7.500000 -2.000000
8.900000 7.500000 -2.000000
8.800000 7.500000 -2.000000
8.700000 7.500000 -2.000000
8.600000 7.500000 -2.000000
8.500000 7.500000 -2.000000
8.400000 7.500000 -2.000000
8.300000 7.500000 -2.000000
8.200000 7.500000 -2.000000
8.100000 7.500000 -2.000000
8.000000 7.500000 -2.000000
7.900000 7.500000 -2.000000
7.800000 7.500000 -2.000000
7.700000 7.500000 -2.000000
7.600000 7.500000 -2.000000
7.500000 7.500000 -2.000000
7.400000 7.500000 -2.000000
7.300000 7.500000 -2.000000
7.200000 7.500000 -2.000000
7.100000 7.500000 -2.000000
7.000000 7.500000 -2.000000
6.900000 7.500000 -2.000000
6.800000 7.500000 -2.000000
6.700000 7.500000 -2.000000
6.600000 7.500000 -2.000000
6.500000 7.500000 -2.000000
6.400000 7.500000 -2.000000
6.300000 7.500000 -2.000000
6.200000 7.500000 -2.000000
6.100000 7.500000 -2.000000
6.000000 7.500000 -2.000000
5.900000 7.500000 -2.000000
5.800000 7.500000 -2.000000
5.700000 7.500000 -2.000000
5.600000 7.500000 -2.000000
5.500000 7.500000 -2.000000
5.400000 7.500000 -2.000000
5.300000 7.500000 -2.000000
5.200000 7.500000 -2.000000
5.100000 7.500000 -2.000000
5.000000 7.500000 -2.000000
5.000000 7.400000 -2.000000
5.000000 7.300000 -2.000000
5.000000 7.200000 -2.000000
5.000000 7.100000 -2.000000
5.000000 7.000000 -2.000000
5.000000 6.900000 -2.000000
5.000000 6.800000 -2.000000
5.000000 6.700000 -2.000000
5.000000 6.600000 -2.000000
5.000000 6.500000 -2.000000
5.000000 6.400000 -2.000000
5.000000 6.300000 -2.000000
5.000000 6.200000 -2.000000
5.000000 6.100000 -2.000000
5.000000 6.000000 -2.000000
5.000000 5.900000 -2.000000
5.000000 5.800000 -2.000000
5.000000 5.700000 -2.000000
5.000000 5.600000 -2.000000
5.000000 5.500000 -2.000000
5.000000 5.400000 -2.000000
5.000000 5.300000 -2.000000
5.000000 5.200000 -2.000000
5.000000 5.100000 -2.000000
5.000000 5.000000 -2.000000
5.000000 4.900000 -2.000000
5.000000 4.800000 -2.000000
5.000000 4.700000 -2.000000
5.000000 4.600000 -2.000000
5.000000 4.500000 -2.000000
5.000000 4.400000 -2.000000
5.000000 4.300000 -2.000000
5.000000 4.200000 -2.000000
5.000000 4.100000 -2.000000
5.000000 4.000000 -2.000000
5.000000 3.900000 -2.000000
5.000000 3.800000 -2.000000
5.000000 3.700000 -2.000000
5.000000 3.600000 -2.000000
5.000000 3.500000 -2.000000
5.000000 3.400000 -2.000000
5.000000 3.300000 -2.000000
5.000000 3.200000 -2.000000
5.000000 3.100000 -2.000000
5.000000 3.000000 -2.000000
5.000000 2.900000 -2.000000
5.000000 2.800000 -2.000000
5.000000 2.700000 -2.000000
5.000000 2.600000 -2.000000
5.000000 2.500000 -2.000000
4.955965 2.590080 -2.000000
4.913553 2.680935 -2.000000
4.872778 2.772536 -2.000000
4.833652 2.864854 -2.000000
4.796188 2.957859 -2.000000
4.760398 3.051521 -2.000000
4.726294 3.145809 -2.000000
4.693886 3.240695 -2.000000
4.663186 3.336146 -2.000000
4.634202 3.432132 -2.000000
4.606944 3.528623 -2.000000
4.581422 3.625587 -2.000000
4.557643 3.722993 -2.000000
4.535614 3.820810 -2.000000
4.515344 3.919007 -2.000000
4.496838 4.017551 -2.000000
4.480102 4.116411 -2.000000
4.465142 4.215556 -2.000000
4.451963 4.314953 -2.000000
4.440569 4.414570 -2.000000
4.430963 4.514376 -2.000000
4.423149 4.614338 -2.000000
4.417129 4.714424 -2.000000
4.412905 4.814602 -2.000000
4.410479 4.914839 -2.000000
4.409850 5.015104 -2.000000
4.411021 5.115364 -2.000000
4.413989 5.215587 -2.000000
4.418754 5.315740 -2.000000
4.425315 5.415792 -2.000000
4.433669 5.515711 -2.000000
4.443814 5.615463 -2.000000
4.455746 5.715017 -2.000000
4.469462 5.814341 -2.000000
4.484958 5.913404 -2.000000
4.502227 6.012172 -2.000000
4.521265 6.110615 -2.000000
4.542066 6.208700 -2.000000
4.564623 6.306397 -2.000000
4.588928 6.403674 -2.000000
4.614974 6.500498 -2.000000
4.642752 6.596840 -2.000000
4.672254 6.692669 -2.000000
4.703470 6.787953 -2.000000
4.736390 6.882661 -2.000000
4.771004 6.976764 -2.000000
4.807299 7.070231 -2.000000
4.845265 7.163032 -2.000000
4.884889 7.255137 -2.000000
4.926159 7.346517 -2.000000
4.969062 7.437141 -2.000000
5.013582 7.526982 -2.000000
5.059707 7.616010 -2.000000
5.107422 7.704196 -2.000000
5.156710 7.791512 -2.000000
5.207556 7.877930 -2.000000
5.259944 7.963422 -2.000000
5.313857 8.047961 -2.000000
5.369278 8.131520 -2.000000
5.426189 8.214070 -2.000000
5.484570 8.295587 -2.000000
5.544405 8.376044 -2.000000
5.605673 8.455414 -2.000000
5.668354 8.533673 -2.000000
5.732430 8.610795 -2.000000
5.797878 8.686756 -2.000000
5.864678 8.761530 -2.000000
5.932808 8.835094 -2.000000
6.002247 8.907425 -2.000000
6.072972 8.978498 -2.000000
6.144960 9.048292 -2.000000
6.218188 9.116783 -2.000000
6.292634 9.183950 -2.000000
6.368271 9.249770 -2.000000
6.445078 9.314224 -2.000000
6.523027 9.377289 -2.000000
6.602096 9.438947 -2.000000
6.682257 9.499176 -2.000000
6.763486 9.557958 -2.000000
6.845756 9.615273 -2.000000
6.929041 9.671104 -2.000000
7.013314 9.725432 -2.000000
7.098548 9.778240 -2.000000
7.184715 9.829510 -2.000000
7.271788 9.879227 -2.000000
7.359738 9.927374 -2.000000
7.448538 9.973936 -2.000000
7.538159 10.018898 -2.000000
7.628571 10.062245 -2.000000
7.719747 10.103964 -2.000000
7.811656 10.144040 -2.000000
7.904270 10.182462 -2.000000
7.997557 10.219217 -2.000000
8.091489 10.254292 -2.000000
8.186034 10.287677 -2.000000
8.281164 10.319361 -2.000000
8.376846 10.349334 -2.000000
8.473050 10.377585 -2.000000
8.569746 10.404107 -2.000000
8.666901 10.428890 -2.000000
8.764486 10.451927 -2.000000
8.862468 10.473209 -2.000000
8.960816 10.492731 -2.000000
9.059499 10.510486 -2.000000
9.158483 10.526468 -2.000000
9.257739 10.540672 -2.000000
9.357234 10.553094 -2.000000
9.456935 10.563729 -2.000000
9.556811 10.572574 -2.000000
9.656829 10.579627 -2.000000
9.756958 10.584884 -2.000000
9.857165 10.588345 -2.000000
9.957418 10.590008 -2.000000
10.057685 10.589872 -2.000000
10.157933 10.587939 -2.000000
10.258131 10.584207 -2.000000
10.358245 10.578679 -2.000000
10.458244 10.571356 -2.000000
10.558096 10.562241 -2.000000
10.657768 10.551337 -2.000000
10.757228 10.538647 -2.000000
10.856445 10.524174 -2.000000
10.955387 10.507925 -2.000000
11.054021 10.489903 -2.000000
11.152316 10.470116 -2.000000
11.250240 10.448569 -2.000000
11.347762 10.425268 -2.000000
11.444850 10.400223 -2.000000
11.541474 10.373440 -2.000000
11.637602 10.344929 -2.000000
11.733202 10.314697 -2.000000
11.828246 10.282757 -2.000000
11.922701 10.249116 -2.000000
12.016537 10.213787 -2.000000
12.109725 10.176781 -2.000000
12.202234 10.138109 -2.000000
12.294035 10.097784 -2.000000
12.385097 10.055819 -2.000000
12.475393 10.012228 -2.000000
12.564892 9.967024 -2.000000
12.653565 9.920223 -2.000000
12.741385 9.871838 -2.000000
12.828324 9.821886 -2.000000
12.914352 9.770383 -2.000000
12.999443 9.717345 -2.000000
13.083568 9.662790 -2.000000
13.166702 9.606734 -2.000000
13.248817 9.549196 -2.000000
13.329887 9.490195 -2.000000
13.409885 9.429750 -2.000000
13.488787 9.367879 -2.000000
13.566566 9.304603 -2.000000
13.643198 9.239942 -2.000000
13.718657 9.173917 -2.000000
13.792921 9.106550 -2.000000
13.865964 9.037861 -2.000000
13.937763 8.967873 -2.000000
14.008296 8.896609 -2.000000
14.077539 8.824091 -2.000000
14.145470 8.750343 -2.000000
14.212068 8.675389 -2.000000
14.277311 8.599252 -2.000000
14.341177 8.521957 -2.000000
14.403647 8.443529 -2.000000
14.464700 8.363993 -2.000000
14.524317 8.283375 -2.000000
14.582479 8.201701 -2.000000
14.639166 8.118996 -2.000000
14.694361 8.035289 -2.000000
14.748045 7.950605 -2.000000
14.800202 7.864971 -2.000000
14.850815 7.778416 -2.000000
14.899867 7.690967 -2.000000
14.947343 7.602652 -2.000000
14.993227 7.513500 -2.000000
15.037505 7.423540 -2.000000
15.080162 7.332799 -2.000000
15.121185 7.241309 -2.000000
15.160560 7.149097 -2.000000
15.198276 7.056194 -2.000000
15.234318 6.962629 -2.000000
15.268677 6.868433 -2.000000
15.301341 6.773635 -2.000000
15.332299 6.678268 -2.000000
15.361542 6.582360 -2.000000
15.389060 6.485943 -2.000000
15.414845 6.389048 -2.000000
15.438887 6.291707 -2.000000
15.461180 6.193949 -2.000000
15.481715 6.095808 -2.000000
15.500488 5.997314 -2.000000
15.517490 5.898499 -2.000000
15.532718 5.799396 -2.000000
15.546165 5.700035 -2.000000
15.557829 5.600449 -2.000000
15.567704 5.500669 -2.000000
15.575788 5.400729 -2.000000
15.582079 5.300659 -2.000000
15.586573 5.200493 -2.000000
15.589271 5.100263 -2.000000
15.590170 5.000000 -2.000000
10.000000 5.000000 -1.900000
10.000000 5.000000 -1.800000
10.000000 5.000000 -1.700000
10.000000 5.000000 -1.600000
10.000000 5.000000 -1.500000
10.000000 5.000000 -1.400000
10.000000 5.000000 -1.300000
10.000000 5.000000 -1.200000
10.000000 5.000000 -1.100000
10.000000 5.000000 -1.000000
10.000000 5.000000 -0.900000
10.000000 5.000000 -0.800000
10.000000 5.000000 -0.700000
10.000000 5.000000 -0.600000
10.000000 5.000000 -0.500000
10.000000 5.000000 -0.400000
10.000000 5.000000 -0.300000
10.000000 5.000000 -0.200000
10.000000 5.000000 -0.100000
10.000000 5.000000 0.000000
10.000000 5.000000 0.100000
10.000000 5.000000 0.200000
10.000000 5.000000 0.300000
10.000000 5.000000 0.400000
10.000000 5.000000 0.500000
10.000000 5.000000 0.600000
10.000000 5.000000 0.700000
10.000000 5.000000 0.800000
10.000000 5.000000 0.900000
10.000000 5.000000 1.000000
10.000000 5.000000 1.100000
10.000000 5.000000 1.200000
10.000000 5.000000 1.300000
10.000000 5.000000 1.400000
10.000000 5.000000 1.500000
10.000000 5.000000 1.600000
10.000000 5.000000 1.700000
10.000000 5.000000 1.800000
10.000000 5.000000 1.900000
10.000000 5.000000 2.000000
10.000000 5.000000 2.100000
10.000000 5.000000 2.200000
10.000000 5.000000 2.300000
10.000000 5.000000 2.400000
10.000000 5.000000 2.500000
10.000000 5.000000 2.600000
10.000000 5.000000 2.700000
10.000000 5.000000 2.800000
10.000000 5.000000 2.900000
10.000000 5.000000 3.000000
10.000000 5.000000 3.100000
10.000000 5.000000 3.200000
10.000000 5.000000 3.300000
10.000000 5.000000 3.400000
10.000000 5.000000 3.500000
10.000000 5.000000 3.600000
10.000000 5.000000 3.700000
10.000000 5.000000 3.800000
10.000000 5.000000 3.900000
10.000000 5.000000 4.000000
10.000000 5.000000 4.100000
10.000000 5.000000 4.200000
10.000000 5.000000 4.300000
10.000000 5.000000 4.400000
10.000000 5.000000 4.500000
10.000000 5.000000 4.600000
10.000000 5.000000 4.700000
10.000000 5.000000 4.800000
10.000000 5.000000 4.900000
10.000000 5.000000 5.000000
